PathFileType	4	(X/Y/Z)	/Users/itak/Documents/Research/Walk-IL/dataset/trc/00059_00006.trc
DataRate	CameraRate	NumFrames	NumMarkers	Units	OrigDataRate	OrigDataStartFrame	OrigNumFrames
100.000000	100.000000	4	53	mm	100.000000	468	750
Frame#	Time	RPSI			LPSI			L3			STRN			T10			C7			CLAV			RBAK			LBAK			LSHO			LUPA			LAEL			LAOL			LWTS			LWPS			LFRA			LIFD			LHPS			LHTS			RSHO			RUPA			RAEL			RAOL			RWTS			RWPS			RFRA			RIFD			RHTS			RHPS			RBHD			LFHD			RFHD			LBHD			LHIP			RHIP			RASI			LASI			LKNE			LTHI			LANK			LTIP			LTOE			LMT1			LMT5			LHEE			RKNE			RTHI			RANK			RTIP			RTOE			RMT1			RMT5			RHEE			
		X1	Y1	Z1	X2	Y2	Z2	X3	Y3	Z3	X4	Y4	Z4	X5	Y5	Z5	X6	Y6	Z6	X7	Y7	Z7	X8	Y8	Z8	X9	Y9	Z9	X10	Y10	Z10	X11	Y11	Z11	X12	Y12	Z12	X13	Y13	Z13	X14	Y14	Z14	X15	Y15	Z15	X16	Y16	Z16	X17	Y17	Z17	X18	Y18	Z18	X19	Y19	Z19	X20	Y20	Z20	X21	Y21	Z21	X22	Y22	Z22	X23	Y23	Z23	X24	Y24	Z24	X25	Y25	Z25	X26	Y26	Z26	X27	Y27	Z27	X28	Y28	Z28	X29	Y29	Z29	X30	Y30	Z30	X31	Y31	Z31	X32	Y32	Z32	X33	Y33	Z33	X34	Y34	Z34	X35	Y35	Z35	X36	Y36	Z36	X37	Y37	Z37	X38	Y38	Z38	X39	Y39	Z39	X40	Y40	Z40	X41	Y41	Z41	X42	Y42	Z42	X43	Y43	Z43	X44	Y44	Z44	X45	Y45	Z45	X46	Y46	Z46	X47	Y47	Z47	X48	Y48	Z48	X49	Y49	Z49	X50	Y50	Z50	X51	Y51	Z51	X52	Y52	Z52	X53	Y53	Z53	

469	4.68	-238.4403991699219	1007.181030273438	-373.7958984375	-113.2579879760742	1001.385131835938	-257.3590393066406	-164.0188751220703	1067.132202148438	-307.055419921875	-361.0833740234375	1262.481201171875	-148.8329162597656	-140.8781890869141	1196.825561523438	-302.4794006347656	-181.3137512207031	1464.416625976562	-256.947265625	-171.4199981689453	1329.549682617188	-357.55322265625	-331.4139404296875	1376.161499023438	-162.9552154541016	-105.2922058105469	1423.5341796875	-189.5294036865234	-150.2449493408203	1424.089599609375	-73.48755645751953	-92.03038787841797	1301.497680664062	-17.37400817871094	-100.4708251953125	1092.134643554688	35.29717254638672	-97.15705108642578	1065.3203125	-67.08686828613281	-275.0297241210938	894.4603881835938	47.62793731689453	-201.7253723144531	862.2412109375	73.32338714599609	-140.9842987060547	991.211181640625	63.79653549194336	-348.0122985839844	721.4114990234375	47.64667892456055	-254.0828399658203	793.4109497070312	88.80049896240234	-315.1108093261719	820.183837890625	65.11255645751953	-327.5990600585938	1438.470703125	-368.9760437011719	-344.3698120117188	1382.258544921875	-436.26953125	-297.377197265625	1151.35498046875	-543.5594482421875	-265.3272094726562	1113.464599609375	-458.3790893554688	-370.9645690917969	874.4653930664062	-472.2825927734375	-326.0975036621094	872.7735595703125	-547.505615234375	-303.0635070800781	1066.572509765625	-559.7535400390625	-324.4410705566406	687.31640625	-470.0503845214844	-366.4494934082031	766.5069580078125	-471.2604370117188	-337.2623901367188	778.8175659179688	-541.83203125	-206.1572570800781	1654.65673828125	-210.9156646728516	-397.5749816894531	1652.790405273438	-112.5270843505859	-287.71044921875	1654.8720703125	-52.04630279541016	-330.0979309082031	1643.025390625	-269.8166198730469	-120.493896484375	936.452392578125	-119.6633377075195	-346.8229064941406	941.5862426757812	-383.7453002929688	-418.2145385742188	963.6578979492188	-282.2299499511719	-240.1095886230469	944.5081176757812	-81.79261779785156	-248.4629669189453	477.3501586914062	-203.3146820068359	-187.6446228027344	611.4720458984375	-162.0383758544922	-160.0648803710938	39.61124420166016	-350.1283874511719	-190.0418090820312	242.5539398193359	-275.7396850585938	-365.1483459472656	40.23182678222656	-321.1351013183594	-325.6265869140625	49.66477203369141	-378.2890930175781	-255.3516235351562	34.51737213134766	-291.5790710449219	-128.8625640869141	50.83351516723633	-438.6205749511719	-526.9013671875	551.1527099609375	-189.6323547363281	-461.7937622070312	798.6031494140625	-287.8149719238281	-572.1041870117188	56.71994400024414	-243.7246856689453	-553.6343994140625	425.3020324707031	-197.5887908935547	-649.3424682617188	103.9420547485352	-52.82466506958008	-585.283447265625	89.91487884521484	-77.13651275634766	-649.2095336914062	81.33251953125	-153.2689971923828	-500.9010925292969	49.47398376464844	-251.6573333740234	
470	4.69	-248.5801391601562	1006.1123046875	-368.2469787597656	-121.6506881713867	1000.013732910156	-253.8995056152344	-172.7168884277344	1066.0244140625	-302.8314819335938	-367.2901000976562	1261.248168945312	-141.4249420166016	-149.0821228027344	1195.64306640625	-298.1971435546875	-188.6796875	1463.164184570312	-251.3313903808594	-180.0994110107422	1328.515747070312	-352.3482666015625	-337.663330078125	1374.91552734375	-155.7140350341797	-111.8019180297852	1422.11181640625	-184.9603424072266	-155.3917999267578	1422.524780273438	-68.43953704833984	-96.58924102783203	1299.929565429688	-12.97800159454346	-104.9192733764648	1090.659057617188	40.33499526977539	-102.5503311157227	1063.66943359375	-62.06276321411133	-280.3645324707031	893.9987182617188	54.34273147583008	-207.049560546875	861.4130249023438	79.56058502197266	-145.6051025390625	990.0020141601562	69.26600646972656	-354.4291076660156	721.4487915039062	55.15975570678711	-259.7589416503906	792.8983764648438	95.53365325927734	-320.7748413085938	820.0431518554688	72.25846099853516	-336.2537231445312	1437.600708007812	-361.6465454101562	-353.618408203125	1381.792358398438	-428.9319763183594	-307.213623046875	1151.785522460938	-538.0537719726562	-274.3489990234375	1113.472900390625	-453.3688354492188	-379.1704711914062	874.2799072265625	-467.1332397460938	-335.0548095703125	873.0335693359375	-542.8557739257812	-312.8916015625	1066.99658203125	-554.6337280273438	-331.5448303222656	687.3157958984375	-466.0282897949219	-374.0046997070312	766.2933959960938	-466.5057067871094	-345.6559448242188	778.99755859375	-537.3801879882812	-213.2650451660156	1653.339233398438	-204.5575256347656	-403.6933898925781	1651.180297851562	-104.2981033325195	-293.2453918457031	1653.321533203125	-44.88788604736328	-337.7446899414062	1641.655029296875	-262.2699584960938	-126.5983276367188	935.2349853515625	-116.096794128418	-357.3006286621094	940.6809692382812	-376.4668579101562	-427.1295471191406	962.7445068359375	-273.8031921386719	-245.7465362548828	943.155517578125	-76.33650207519531	-252.8548889160156	475.8579406738281	-199.7444610595703	-192.4367980957031	610.4070434570312	-158.5768127441406	-160.6090850830078	40.09221267700195	-350.8568420410156	-192.2875671386719	242.1582336425781	-274.5865173339844	-365.4921264648438	39.90130615234375	-321.5196228027344	-326.0755004882812	48.82416915893555	-378.3669738769531	-255.7130584716797	34.58078384399414	-291.8529052734375	-129.9506683349609	52.29138946533203	-439.4122314453125	-532.94287109375	548.9022216796875	-182.2456665039062	-470.4510498046875	797.1255493164062	-279.6302795410156	-590.9683837890625	54.0684928894043	-215.0401916503906	-561.819091796875	423.9162902832031	-186.3266448974609	-663.4262084960938	111.1517105102539	-25.06652450561523	-600.1932983398438	94.93441009521484	-49.98418426513672	-665.6895751953125	84.03414916992188	-124.2553634643555	-520.0906982421875	45.07440948486328	-224.0089874267578	
471	4.7	-258.8247985839844	1004.970642089844	-362.5140380859375	-130.1462554931641	998.6241455078125	-250.2933807373047	-181.5659637451172	1064.81591796875	-298.4493713378906	-373.5216064453125	1259.944458007812	-133.9054870605469	-157.3482971191406	1194.349365234375	-293.7628784179688	-196.0652313232422	1461.806640625	-245.6255340576172	-188.80224609375	1327.344970703125	-346.9917602539062	-343.962646484375	1373.592407226562	-148.40283203125	-118.3681793212891	1420.596313476562	-180.2915344238281	-160.6167144775391	1420.904663085938	-63.3148078918457	-101.2354507446289	1298.329345703125	-8.463678359985352	-109.3882522583008	1089.151245117188	45.46669387817383	-107.9575958251953	1061.9921875	-56.92572402954102	-285.5796813964844	893.3871459960938	61.20062255859375	-212.2301940917969	860.4891357421875	85.94041442871094	-150.2125396728516	988.7584838867188	74.87603759765625	-360.5960388183594	721.283935546875	62.87791061401367	-265.2346496582031	792.2759399414062	102.4554290771484	-326.2371215820312	819.7321166992188	79.58247375488281	-344.8773498535156	1436.61962890625	-354.2371520996094	-362.7803344726562	1381.215209960938	-421.5028686523438	-317.09521484375	1152.07275390625	-532.4033203125	-283.5351867675781	1113.3203125	-448.1785278320312	-387.5920715332031	874.0138549804688	-461.7854309082031	-344.278076171875	873.1703491210938	-538.0099487304688	-322.82275390625	1067.272094726562	-549.3521728515625	-339.0494995117188	687.2166137695312	-461.7979736328125	-381.8460693359375	766.003173828125	-461.5401000976562	-354.3910522460938	779.0709838867188	-532.7221069335938	-220.4150848388672	1651.954711914062	-198.1154479980469	-409.8524475097656	1649.468872070312	-96.00005340576172	-298.8341064453125	1651.673706054688	-37.66103363037109	-345.4253234863281	1640.209594726562	-254.6395568847656	-132.7691650390625	933.9932861328125	-112.4450378417969	-367.8107604980469	939.6480712890625	-368.9693298339844	-436.0383605957031	961.6741943359375	-265.1734008789062	-251.3963928222656	941.7376098632812	-70.73904418945312	-257.0784912109375	474.3568420410156	-196.1288146972656	-197.1632537841797	609.318115234375	-155.0662689208984	-161.1696166992188	40.59949493408203	-351.5813903808594	-194.4219360351562	241.8128814697266	-273.4012145996094	-365.8162841796875	39.65520095825195	-321.8882751464844	-326.4905700683594	48.03229141235352	-378.4241027832031	-256.0631103515625	34.67422866821289	-292.1152954101562	-131.0422668457031	53.8297004699707	-440.1658020019531	-538.95166015625	546.2894897460938	-175.1951904296875	-479.0780944824219	795.3705444335938	-271.5507507324219	-608.3974609375	52.13346481323242	-186.8376159667969	-569.5469970703125	422.3990173339844	-175.4234924316406	-676.0084838867188	118.7175521850586	1.770768284797668	-613.65283203125	100.4205093383789	-23.67116928100586	-680.7161865234375	87.21480560302734	-95.95042419433594	-537.8836669921875	41.51647567749023	-196.7960052490234	
472	4.71	-269.180419921875	1003.76171875	-356.5898742675781	-138.7418060302734	997.234130859375	-246.5418548583984	-190.5758514404297	1063.519897460938	-293.8973693847656	-379.7786560058594	1258.572998046875	-126.265251159668	-165.6885986328125	1192.95458984375	-289.1637878417969	-203.4888458251953	1460.35693359375	-239.8420257568359	-197.5449066162109	1326.03466796875	-341.48388671875	-350.3260498046875	1372.2001953125	-141.0223999023438	-125.004150390625	1419.00048828125	-175.5352172851562	-165.9305114746094	1419.241821289062	-58.12005996704102	-105.9737014770508	1296.7099609375	-3.835562467575073	-113.8807525634766	1087.625122070312	50.68806076049805	-113.376335144043	1060.305541992188	-51.68843078613281	-290.6595153808594	892.62060546875	68.20714569091797	-217.2444915771484	859.4700927734375	92.45127105712891	-154.8035430908203	987.4796752929688	80.61652374267578	-366.4978942871094	720.90380859375	70.80096435546875	-270.4703063964844	791.5380859375	109.5573120117188	-331.4754638671875	819.2357788085938	87.09169006347656	-353.4934997558594	1435.529663085938	-346.7507019042969	-371.8877563476562	1380.525146484375	-413.9826965332031	-327.0440063476562	1152.211791992188	-526.6000366210938	-292.888427734375	1113.007934570312	-442.8065795898438	-396.2416381835938	873.6633911132812	-456.2351684570312	-353.767578125	873.177734375	-532.9564819335938	-332.8703002929688	1067.397583007812	-543.8988647460938	-346.9985046386719	687.0146484375	-457.3362731933594	-390.0213623046875	765.6369018554688	-456.35791015625	-363.4782409667969	779.031982421875	-527.8438720703125	-227.6020812988281	1650.51953125	-191.6008911132812	-416.0476684570312	1647.676635742188	-87.63853454589844	-304.4689331054688	1649.94140625	-30.37565994262695	-353.1411743164062	1638.710083007812	-246.9326934814453	-139.0055847167969	932.7407836914062	-108.7101211547852	-378.3538818359375	938.4746704101562	-361.2511901855469	-444.9407348632812	960.440185546875	-256.3444213867188	-257.0437622070312	940.2606201171875	-64.98361206054688	-261.1331176757812	472.8605041503906	-192.4749145507812	-201.8121795654297	608.2164306640625	-151.5073852539062	-161.724609375	41.13275909423828	-352.2458801269531	-196.4452056884766	241.5189819335938	-272.1496276855469	-366.1021728515625	39.48557281494141	-322.2425537109375	-326.8589477539062	47.30757904052734	-378.4650268554688	-256.3826293945312	34.78564071655273	-292.3485717773438	-132.076904296875	55.42911529541016	-440.8203735351562	-544.9449462890625	543.415771484375	-168.2624359130859	-487.7086791992188	793.3516845703125	-263.5378112792969	-624.3784790039062	50.8470458984375	-159.556640625	-576.8539428710938	420.7905578613281	-164.7395172119141	-687.0551147460938	126.3298721313477	27.42095565795898	-625.6179809570312	106.090934753418	1.484699964523315	-694.2727661132812	90.70095825195312	-68.69511413574219	-554.2570190429688	38.74009323120117	-170.5048522949219	
